<?xml version="1.0" encoding="UTF-8" standalone="no"?>
<svg
   xmlns:dc="http://purl.org/dc/elements/1.1/"
   xmlns:cc="http://creativecommons.org/ns#"
   xmlns:rdf="http://www.w3.org/1999/02/22-rdf-syntax-ns#"
   xmlns:svg="http://www.w3.org/2000/svg"
   xmlns="http://www.w3.org/2000/svg"
   xmlns:sodipodi="http://sodipodi.sourceforge.net/DTD/sodipodi-0.dtd"
   xmlns:inkscape="http://www.inkscape.org/namespaces/inkscape"
   width="118.01559mm"
   height="114.01099mm"
   viewBox="0 0 118.0156 114.01099"
   version="1.1"
   id="svg8"
   inkscape:version="1.0.2-2 (e86c870879, 2021-01-15)"
   sodipodi:docname="polytope_flex.svg">
  <defs
     id="defs2" />
  <sodipodi:namedview
     id="base"
     pagecolor="#ffffff"
     bordercolor="#666666"
     borderopacity="1.0"
     inkscape:pageopacity="0.0"
     inkscape:pageshadow="2"
     inkscape:zoom="0.4316588"
     inkscape:cx="126.57854"
     inkscape:cy="547.23182"
     inkscape:document-units="mm"
     inkscape:current-layer="layer1"
     inkscape:document-rotation="0"
     showgrid="false"
     inkscape:snap-object-midpoints="true"
     inkscape:snap-center="true"
     inkscape:window-width="1920"
     inkscape:window-height="1001"
     inkscape:window-x="-9"
     inkscape:window-y="-9"
     inkscape:window-maximized="1"
     fit-margin-top="0"
     fit-margin-left="0"
     fit-margin-right="0"
     fit-margin-bottom="0" />
  <metadata
     id="metadata5">
    <rdf:RDF>
      <cc:Work
         rdf:about="">
        <dc:format>image/svg+xml</dc:format>
        <dc:type
           rdf:resource="http://purl.org/dc/dcmitype/StillImage" />
        <dc:title></dc:title>
      </cc:Work>
    </rdf:RDF>
  </metadata>
  <g
     inkscape:label="Ebene 1"
     inkscape:groupmode="layer"
     id="layer1"
     transform="translate(-43.248985,-35.860365)">
    <g
       id="g1186"
       transform="matrix(0.16555894,-0.34370862,0.34370002,0.16555481,-84.295809,37.325373)">
      <path
         d="m -62.747,534.019 27.242,3.096 -8.674,-43.877"
         style="fill:none;stroke:#000000;stroke-width:2.55385;stroke-linecap:round;stroke-linejoin:round;stroke-miterlimit:4;stroke-dasharray:none;stroke-opacity:1"
         id="path1188" />
    </g>
    <g
       id="g1190"
       transform="matrix(0.16555894,-0.34370862,0.34370002,0.16555481,-84.295809,37.325373)">
      <path
         d="m -35.505,537.115 38.856,10.48 36.815,-16.992 37.332,-29.35"
         style="fill:none;stroke:#000000;stroke-width:2.55385;stroke-linecap:round;stroke-linejoin:round;stroke-miterlimit:4;stroke-dasharray:none;stroke-opacity:1"
         id="path1192" />
    </g>
    <g
       id="g1194"
       transform="matrix(0.16555894,-0.34370862,0.34370002,0.16555481,-84.295809,37.325373)">
      <path
         d="M 40.166,530.603 46.088,567.162 3.351,547.595"
         style="fill:none;stroke:#000000;stroke-width:2.55385;stroke-linecap:round;stroke-linejoin:round;stroke-miterlimit:4;stroke-dasharray:none;stroke-opacity:1"
         id="path1196" />
    </g>
    <g
       id="g1198"
       transform="matrix(0.16555894,-0.34370862,0.34370002,0.16555481,-84.295809,37.325373)">
      <path
         d="m 46.088,567.162 40.934,21.881 4.599,10.625"
         style="fill:none;stroke:#000000;stroke-width:2.55385;stroke-linecap:round;stroke-linejoin:round;stroke-miterlimit:4;stroke-dasharray:none;stroke-opacity:1"
         id="path1200" />
    </g>
    <g
       id="g1202"
       transform="matrix(0.16555894,-0.34370862,0.34370002,0.16555481,-84.295809,37.325373)">
      <path
         d="M 128.581,603.974 87.022,589.043"
         style="fill:none;stroke:#000000;stroke-width:2.55385;stroke-linecap:round;stroke-linejoin:round;stroke-miterlimit:4;stroke-dasharray:none;stroke-opacity:1"
         id="path1204" />
    </g>
    <g
       id="g1206"
       transform="matrix(0.16555894,-0.34370862,0.34370002,0.16555481,-84.295809,37.325373)">
      <path
         d="M 224.21,599.212 213.271,574.07 179.61,603.523"
         style="fill:none;stroke:#000000;stroke-width:2.55385;stroke-linecap:round;stroke-linejoin:round;stroke-miterlimit:4;stroke-dasharray:none;stroke-opacity:1"
         id="path1208" />
    </g>
    <g
       id="g1210"
       transform="matrix(0.16555894,-0.34370862,0.34370002,0.16555481,-84.295809,37.325373)">
      <path
         d="M 213.271,574.07 202.918,535.181 169.795,511.795 125.713,494.142"
         style="fill:none;stroke:#000000;stroke-width:2.55385;stroke-linecap:round;stroke-linejoin:round;stroke-miterlimit:4;stroke-dasharray:none;stroke-opacity:1"
         id="path1212" />
    </g>
    <g
       id="g1214"
       transform="matrix(0.16555894,-0.34370862,0.34370002,0.16555481,-84.295809,37.325373)">
      <path
         d="m 169.795,511.795 28.702,-23.407 4.421,46.793"
         style="fill:none;stroke:#000000;stroke-width:2.55385;stroke-linecap:round;stroke-linejoin:round;stroke-miterlimit:4;stroke-dasharray:none;stroke-opacity:1"
         id="path1216" />
    </g>
    <g
       id="g1218"
       transform="matrix(0.16555894,-0.34370862,0.34370002,0.16555481,-84.295809,37.325373)">
      <path
         d="m 198.497,488.388 -1.518,-46.392 6.901,-9.297"
         style="fill:none;stroke:#000000;stroke-width:2.55385;stroke-linecap:round;stroke-linejoin:round;stroke-miterlimit:4;stroke-dasharray:none;stroke-opacity:1"
         id="path1220" />
    </g>
    <g
       id="g1222"
       transform="matrix(0.16555894,-0.34370862,0.34370002,0.16555481,-84.295809,37.325373)">
      <path
         d="m 189.129,398.538 7.85,43.458"
         style="fill:none;stroke:#000000;stroke-width:2.55385;stroke-linecap:round;stroke-linejoin:round;stroke-miterlimit:4;stroke-dasharray:none;stroke-opacity:1"
         id="path1224" />
    </g>
    <g
       id="g1226"
       transform="matrix(0.16555894,-0.34370862,0.34370002,0.16555481,-84.295809,37.325373)">
      <path
         d="m 137.193,318.1 -16.304,22.045 42.335,14.425"
         style="fill:none;stroke:#000000;stroke-width:2.55385;stroke-linecap:round;stroke-linejoin:round;stroke-miterlimit:4;stroke-dasharray:none;stroke-opacity:1"
         id="path1228" />
    </g>
    <g
       id="g1230"
       transform="matrix(0.16555894,-0.34370862,0.34370002,0.16555481,-84.295809,37.325373)">
      <path
         d="m 120.889,340.145 -28.503,28.41 -3.694,40.382 6.753,47.002"
         style="fill:none;stroke:#000000;stroke-width:2.55385;stroke-linecap:round;stroke-linejoin:round;stroke-miterlimit:4;stroke-dasharray:none;stroke-opacity:1"
         id="path1232" />
    </g>
    <g
       id="g1234"
       transform="matrix(0.16555894,-0.34370862,0.34370002,0.16555481,-84.295809,37.325373)">
      <path
         d="M 88.692,408.937 54.072,395.784 92.386,368.555"
         style="fill:none;stroke:#000000;stroke-width:2.55385;stroke-linecap:round;stroke-linejoin:round;stroke-miterlimit:4;stroke-dasharray:none;stroke-opacity:1"
         id="path1236" />
    </g>
    <g
       id="g1238"
       transform="matrix(0.16555894,-0.34370862,0.34370002,0.16555481,-84.295809,37.325373)">
      <path
         d="M 54.072,395.784 14.654,420.292 3.151,418.965"
         style="fill:none;stroke:#000000;stroke-width:2.55385;stroke-linecap:round;stroke-linejoin:round;stroke-miterlimit:4;stroke-dasharray:none;stroke-opacity:1"
         id="path1240" />
    </g>
    <g
       id="g1242"
       transform="matrix(0.16555894,-0.34370862,0.34370002,0.16555481,-84.295809,37.325373)">
      <path
         d="M -19.058,448.82 14.654,420.292"
         style="fill:none;stroke:#000000;stroke-width:2.55385;stroke-linecap:round;stroke-linejoin:round;stroke-miterlimit:4;stroke-dasharray:none;stroke-opacity:1"
         id="path1244" />
    </g>
    <g
       id="g1246"
       transform="matrix(0.16555894,-0.34370862,0.34370002,0.16555481,-84.295809,37.325373)">
      <path
         d="m 77.498,501.253 17.947,-45.314 30.268,38.203 z"
         style="fill:none;stroke:#000000;stroke-width:2.55385;stroke-linecap:round;stroke-linejoin:round;stroke-miterlimit:4;stroke-dasharray:none;stroke-opacity:1"
         id="path1248" />
    </g>
    <path
       d="m 92.64848,147.43174 -3.790418,-0.13027 -10.942308,-13.13345 -11.107288,-15.98795 -6.584082,-12.57629 -3.521639,-9.521758 4.182247,0.597709 10.73402,13.020359 10.938184,14.86299 6.742531,13.38573 z"
       style="fill:#ececec;fill-opacity:0.788644;fill-rule:evenodd;stroke:none;stroke-width:0.343709"
       id="path1250" />
    <path
       d="m 51.732375,81.624945 4.97037,14.457077 4.182247,0.597709 z"
       style="fill:#fbfbfb;fill-opacity:0.788644;fill-rule:evenodd;stroke:none;stroke-width:0.343709"
       id="path1252" />
    <path
       d="m 82.557196,124.56308 3.591411,-15.6054 -14.529595,0.74241 z"
       style="fill:#fbfbfb;fill-opacity:0.788644;fill-rule:evenodd;stroke:none;stroke-width:0.343709"
       id="path1254" />
    <path
       d="m 92.64848,147.43174 -3.348753,-9.48293 16.804263,-0.57742 z"
       style="fill:#d9d9d9;fill-opacity:0.788644;fill-rule:evenodd;stroke:none;stroke-width:0.343709"
       id="path1256" />
    <path
       d="m 120.45931,124.45687 8.46108,-15.45485 1.57487,3.92034 z"
       style="fill:#fbfbfb;fill-opacity:0.788644;fill-rule:evenodd;stroke:none;stroke-width:0.343709"
       id="path1258" />
    <path
       d="m 134.82908,93.195555 -7.90666,-12.212314 -18.17223,1.311592 -14.650572,10.271046 -7.951011,16.391801 -3.591411,15.6054 6.742531,13.38573 16.804263,-0.57742 14.35532,-12.91452 8.46108,-15.45485 z"
       style="fill:#ececec;fill-opacity:0.788644;fill-rule:evenodd;stroke:none;stroke-width:0.343709"
       id="path1260" />
    <path
       d="m 92.530244,74.741149 1.569374,17.82473 14.650572,-10.271046 z"
       style="fill:#fbfbfb;fill-opacity:0.788644;fill-rule:evenodd;stroke:none;stroke-width:0.343709"
       id="path1262" />
    <path
       d="m 45.740159,46.052478 2.008634,-3.218488 16.844472,-2.909149 19.400633,-1.624711 14.183479,0.585336 10.006393,1.710638 -2.60876,3.322975 -16.643051,2.787133 -18.339948,2.040598 -14.964729,-0.852398 z"
       style="fill:#fbfbfb;fill-opacity:0.788644;fill-rule:evenodd;stroke:none;stroke-width:0.343709"
       id="path1264" />
    <path
       d="m 123.19008,43.520033 -15.00631,-2.923929 -2.60876,3.322975 z"
       style="fill:#fbfbfb;fill-opacity:0.788644;fill-rule:evenodd;stroke:none;stroke-width:0.343709"
       id="path1266" />
    <path
       d="M 70.592011,48.74681 82.309038,59.659558 88.931959,46.706212 Z"
       style="fill:#fbfbfb;fill-opacity:0.788644;fill-rule:evenodd;stroke:none;stroke-width:0.343709"
       id="path1268" />
    <path
       d="m 45.740159,46.052478 9.887123,1.841934 -7.901518,14.841339 z"
       style="fill:#fbfbfb;fill-opacity:0.788644;fill-rule:evenodd;stroke:none;stroke-width:0.343709"
       id="path1270" />
    <path
       d="m 51.732375,81.624945 9.152617,15.054786 -4.182247,-0.597709 z"
       style="fill:#fbfbfb;fill-opacity:0.788644;fill-rule:evenodd;stroke:none;stroke-width:0.343709"
       id="path1272" />
    <path
       d="M 71.619012,109.70009 86.148607,108.95768 94.099618,92.565879 92.530244,74.741149 82.309038,59.659558 70.592011,48.74681 55.627282,47.894412 l -7.901518,14.841339 4.006611,18.889194 9.152617,15.054786 z"
       style="fill:#fbfbfb;fill-opacity:0.788644;fill-rule:evenodd;stroke:none;stroke-width:0.343709"
       id="path1274" />
    <path
       d="m 156.99176,56.11661 1.78145,3.348409 -5.90217,16.042943 -8.29301,17.613693 -7.59939,11.990965 -6.48338,7.80974 -1.57487,-3.92034 5.90869,-15.806465 7.40177,-16.904968 8.2222,-12.53196 z"
       style="fill:#d9d9d9;fill-opacity:0.788644;fill-rule:evenodd;stroke:none;stroke-width:0.343709"
       id="path1276" />
    <path
       d="m 120.45931,124.45687 10.03595,-11.53451 -1.57487,-3.92034 z"
       style="fill:#d9d9d9;fill-opacity:0.788644;fill-rule:evenodd;stroke:none;stroke-width:0.343709"
       id="path1278" />
    <path
       d="m 142.23085,76.290587 -15.30843,4.692654 7.90666,12.212314 z"
       style="fill:#ececec;fill-opacity:0.788644;fill-rule:evenodd;stroke:none;stroke-width:0.343709"
       id="path1280" />
    <path
       d="m 156.99176,56.11661 -6.53871,7.642017 -8.90137,-14.263907 z"
       style="fill:#fbfbfb;fill-opacity:0.788644;fill-rule:evenodd;stroke:none;stroke-width:0.343709"
       id="path1282" />
    <path
       d="m 123.19008,43.520033 -17.61507,0.399046 2.60876,-3.322975 z"
       style="fill:#fbfbfb;fill-opacity:0.788644;fill-rule:evenodd;stroke:none;stroke-width:0.343709"
       id="path1284" />
    <path
       d="m 88.931959,46.706212 -6.622921,12.953346 10.221206,15.081591 16.219946,7.553684 18.17223,-1.311592 15.30843,-4.692654 8.2222,-12.53196 -8.90137,-14.263907 -18.3616,-5.974687 -17.61507,0.399046 z"
       style="fill:#fbfbfb;fill-opacity:0.788644;fill-rule:evenodd;stroke:none;stroke-width:0.343709"
       id="path1286" />
    <g
       id="g1288"
       transform="matrix(0.16555894,-0.34370862,0.34370862,0.16555894,-84.295809,37.325373)">
      <path
         d="m -62.747,534.005 18.568,-40.779 25.121,-44.417 22.209,-29.854 19.662,-19.663 27.306,-27.668 40.05,-30.947 37.139,-23.667 9.885,1.082 26.031,36.469 25.905,43.968 14.751,34.16 7.198,26.857 10.309,37.483 6.778,50.158 1.925,43.994 -5.88,8.016 -44.6,4.311 -51.029,0.451 -36.96,-4.306 -26.857,-7.196 -37.617,-9.811 -46.827,-19.209 -39.063,-20.333 z"
         style="fill:none;stroke:#000000;stroke-width:5.10764;stroke-linecap:round;stroke-linejoin:round;stroke-miterlimit:4;stroke-dasharray:none;stroke-opacity:1"
         id="path1290" />
    </g>
    <g
       id="g1292"
       transform="matrix(0.16555894,-0.34370862,0.34370002,0.16555481,-84.295809,37.325373)">
      <path
         d="m -58.742,543.121 18.584,-18.698 23.941,-31.15 21.884,-41.707 19.311,-41.193 -3.347,-10.556"
         style="fill:none;stroke:#000000;stroke-width:2.55385;stroke-linecap:round;stroke-linejoin:round;stroke-miterlimit:4;stroke-dasharray:none;stroke-opacity:1"
         id="path1294" />
    </g>
    <g
       id="g1296"
       transform="matrix(0.16555894,-0.34370862,0.34370002,0.16555481,-84.295809,37.325373)">
      <path
         d="m 50.119,371.633 -25.141,38.74"
         style="fill:none;stroke:#000000;stroke-width:2.55385;stroke-linecap:round;stroke-linejoin:round;stroke-miterlimit:4;stroke-dasharray:none;stroke-opacity:1"
         id="path1298" />
    </g>
    <g
       id="g1300"
       transform="matrix(0.16555894,-0.34370862,0.34370002,0.16555481,-84.295809,37.325373)">
      <path
         d="M -19.68,563.45 -40.158,524.423"
         style="fill:none;stroke:#000000;stroke-width:2.55385;stroke-linecap:round;stroke-linejoin:round;stroke-miterlimit:4;stroke-dasharray:none;stroke-opacity:1"
         id="path1302" />
    </g>
    <g
       id="g1304"
       transform="matrix(0.16555894,-0.34370862,0.34370002,0.16555481,-84.295809,37.325373)">
      <path
         d="M -16.217,493.273 24.72,484.003 6.439,450.534"
         style="fill:none;stroke:#000000;stroke-width:2.55385;stroke-linecap:round;stroke-linejoin:round;stroke-miterlimit:4;stroke-dasharray:none;stroke-opacity:1"
         id="path1306" />
    </g>
    <g
       id="g1308"
       transform="matrix(0.16555894,-0.34370862,0.34370002,0.16555481,-84.295809,37.325373)">
      <path
         d="M 72.475,484.133 24.72,484.003"
         style="fill:none;stroke:#000000;stroke-width:2.55385;stroke-linecap:round;stroke-linejoin:round;stroke-miterlimit:4;stroke-dasharray:none;stroke-opacity:1"
         id="path1310" />
    </g>
    <g
       id="g1312"
       transform="matrix(0.16555894,-0.34370862,0.34370002,0.16555481,-84.295809,37.325373)">
      <path
         d="m 127.308,317.018 6.896,25.444 15.01,36.31 25.177,39.807 26.018,37.317 10.814,2.38"
         style="fill:none;stroke:#000000;stroke-width:2.55385;stroke-linecap:round;stroke-linejoin:round;stroke-miterlimit:4;stroke-dasharray:none;stroke-opacity:1"
         id="path1314" />
    </g>
    <g
       id="g1316"
       transform="matrix(0.16555894,-0.34370862,0.34370002,0.16555481,-84.295809,37.325373)">
      <path
         d="M 221.387,497.041 200.409,455.896"
         style="fill:none;stroke:#000000;stroke-width:2.55385;stroke-linecap:round;stroke-linejoin:round;stroke-miterlimit:4;stroke-dasharray:none;stroke-opacity:1"
         id="path1318" />
    </g>
    <g
       id="g1320"
       transform="matrix(0.16555894,-0.34370862,0.34370002,0.16555481,-84.295809,37.325373)">
      <path
         d="m 90.169,340.685 44.035,1.777"
         style="fill:none;stroke:#000000;stroke-width:2.55385;stroke-linecap:round;stroke-linejoin:round;stroke-miterlimit:4;stroke-dasharray:none;stroke-opacity:1"
         id="path1322" />
    </g>
    <g
       id="g1324"
       transform="matrix(0.16555894,-0.34370862,0.34370002,0.16555481,-84.295809,37.325373)">
      <path
         d="m 149.214,378.772 -12.443,40.084 38.124,0.906"
         style="fill:none;stroke:#000000;stroke-width:2.55385;stroke-linecap:round;stroke-linejoin:round;stroke-miterlimit:4;stroke-dasharray:none;stroke-opacity:1"
         id="path1326" />
    </g>
    <g
       id="g1328"
       transform="matrix(0.16555894,-0.34370862,0.34370002,0.16555481,-84.295809,37.325373)">
      <path
         d="m 112.782,460.151 23.989,-41.295"
         style="fill:none;stroke:#000000;stroke-width:2.55385;stroke-linecap:round;stroke-linejoin:round;stroke-miterlimit:4;stroke-dasharray:none;stroke-opacity:1"
         id="path1330" />
    </g>
    <g
       id="g1332"
       transform="matrix(0.16555894,-0.34370862,0.34370002,0.16555481,-84.295809,37.325373)">
      <path
         d="m 230.09,591.195 -25.484,-6.748 -38.948,-5.161 -47.063,1.904 -45.326,3.872 -7.467,8.179"
         style="fill:none;stroke:#000000;stroke-width:2.55385;stroke-linecap:round;stroke-linejoin:round;stroke-miterlimit:4;stroke-dasharray:none;stroke-opacity:1"
         id="path1334" />
    </g>
    <g
       id="g1336"
       transform="matrix(0.16555894,-0.34370862,0.34370002,0.16555481,-84.295809,37.325373)">
      <path
         d="m 27.147,582.66 46.122,2.402"
         style="fill:none;stroke:#000000;stroke-width:2.55385;stroke-linecap:round;stroke-linejoin:round;stroke-miterlimit:4;stroke-dasharray:none;stroke-opacity:1"
         id="path1338" />
    </g>
    <g
       id="g1340"
       transform="matrix(0.16555894,-0.34370862,0.34370002,0.16555481,-84.295809,37.325373)">
      <path
         d="m 228.165,547.2 -23.559,37.247"
         style="fill:none;stroke:#000000;stroke-width:2.55385;stroke-linecap:round;stroke-linejoin:round;stroke-miterlimit:4;stroke-dasharray:none;stroke-opacity:1"
         id="path1342" />
    </g>
    <g
       id="g1344"
       transform="matrix(0.16555894,-0.34370862,0.34370002,0.16555481,-84.295809,37.325373)">
      <path
         d="m 165.658,579.286 -28.494,-30.815 -19.846,32.564"
         style="fill:none;stroke:#000000;stroke-width:2.55385;stroke-linecap:round;stroke-linejoin:round;stroke-miterlimit:4;stroke-dasharray:none;stroke-opacity:1"
         id="path1346" />
    </g>
    <g
       id="g1348"
       transform="matrix(0.16555894,-0.34370862,0.34370002,0.16555481,-84.295809,37.325373)">
      <path
         d="m 113.395,507.048 23.769,41.423"
         style="fill:none;stroke:#000000;stroke-width:2.55385;stroke-linecap:round;stroke-linejoin:round;stroke-miterlimit:4;stroke-dasharray:none;stroke-opacity:1"
         id="path1350" />
    </g>
    <g
       id="g1352"
       transform="matrix(0.16555894,-0.34370862,0.34370002,0.16555481,-84.295809,37.325373)">
      <path
         d="m 72.475,484.133 40.307,-23.982 0.613,46.897 z"
         style="fill:none;stroke:#000000;stroke-width:2.55385;stroke-linecap:round;stroke-linejoin:round;stroke-miterlimit:4;stroke-dasharray:none;stroke-opacity:1"
         id="path1354" />
    </g>
  </g>
</svg>
