<?xml version="1.0" encoding="UTF-8" standalone="no"?>
<svg
   xmlns:dc="http://purl.org/dc/elements/1.1/"
   xmlns:cc="http://creativecommons.org/ns#"
   xmlns:rdf="http://www.w3.org/1999/02/22-rdf-syntax-ns#"
   xmlns:svg="http://www.w3.org/2000/svg"
   xmlns="http://www.w3.org/2000/svg"
   xmlns:sodipodi="http://sodipodi.sourceforge.net/DTD/sodipodi-0.dtd"
   xmlns:inkscape="http://www.inkscape.org/namespaces/inkscape"
   width="210mm"
   height="297mm"
   viewBox="0 0 210 297"
   version="1.1"
   id="svg8"
   inkscape:version="1.0.2-2 (e86c870879, 2021-01-15)"
   sodipodi:docname="polytope_flex.svg">
  <defs
     id="defs2" />
  <sodipodi:namedview
     id="base"
     pagecolor="#ffffff"
     bordercolor="#666666"
     borderopacity="1.0"
     inkscape:pageopacity="0.0"
     inkscape:pageshadow="2"
     inkscape:zoom="0.5071383"
     inkscape:cx="400"
     inkscape:cy="560"
     inkscape:document-units="mm"
     inkscape:current-layer="layer1"
     inkscape:document-rotation="0"
     showgrid="false"
     inkscape:snap-object-midpoints="true"
     inkscape:snap-center="true"
     inkscape:window-width="1920"
     inkscape:window-height="1001"
     inkscape:window-x="-9"
     inkscape:window-y="-9"
     inkscape:window-maximized="1" />
  <metadata
     id="metadata5">
    <rdf:RDF>
      <cc:Work
         rdf:about="">
        <dc:format>image/svg+xml</dc:format>
        <dc:type
           rdf:resource="http://purl.org/dc/dcmitype/StillImage" />
        <dc:title></dc:title>
      </cc:Work>
    </rdf:RDF>
  </metadata>
  <g
     inkscape:label="Ebene 1"
     inkscape:groupmode="layer"
     id="layer1">
    <g
       id="g1186"
       transform="matrix(0.16992741,-0.35277777,0.35276895,0.16992317,-89.218217,35.859872)">
      <path
         d="m -62.747,534.019 27.242,3.096 -8.674,-43.877"
         style="fill:none;stroke:#000000;stroke-width:2.55385;stroke-linecap:round;stroke-linejoin:round;stroke-miterlimit:4;stroke-dasharray:none;stroke-opacity:1"
         id="path1188" />
    </g>
    <g
       id="g1190"
       transform="matrix(0.16992741,-0.35277777,0.35276895,0.16992317,-89.218217,35.859872)">
      <path
         d="m -35.505,537.115 38.856,10.48 36.815,-16.992 37.332,-29.35"
         style="fill:none;stroke:#000000;stroke-width:2.55385;stroke-linecap:round;stroke-linejoin:round;stroke-miterlimit:4;stroke-dasharray:none;stroke-opacity:1"
         id="path1192" />
    </g>
    <g
       id="g1194"
       transform="matrix(0.16992741,-0.35277777,0.35276895,0.16992317,-89.218217,35.859872)">
      <path
         d="M 40.166,530.603 46.088,567.162 3.351,547.595"
         style="fill:none;stroke:#000000;stroke-width:2.55385;stroke-linecap:round;stroke-linejoin:round;stroke-miterlimit:4;stroke-dasharray:none;stroke-opacity:1"
         id="path1196" />
    </g>
    <g
       id="g1198"
       transform="matrix(0.16992741,-0.35277777,0.35276895,0.16992317,-89.218217,35.859872)">
      <path
         d="m 46.088,567.162 40.934,21.881 4.599,10.625"
         style="fill:none;stroke:#000000;stroke-width:2.55385;stroke-linecap:round;stroke-linejoin:round;stroke-miterlimit:4;stroke-dasharray:none;stroke-opacity:1"
         id="path1200" />
    </g>
    <g
       id="g1202"
       transform="matrix(0.16992741,-0.35277777,0.35276895,0.16992317,-89.218217,35.859872)">
      <path
         d="M 128.581,603.974 87.022,589.043"
         style="fill:none;stroke:#000000;stroke-width:2.55385;stroke-linecap:round;stroke-linejoin:round;stroke-miterlimit:4;stroke-dasharray:none;stroke-opacity:1"
         id="path1204" />
    </g>
    <g
       id="g1206"
       transform="matrix(0.16992741,-0.35277777,0.35276895,0.16992317,-89.218217,35.859872)">
      <path
         d="M 224.21,599.212 213.271,574.07 179.61,603.523"
         style="fill:none;stroke:#000000;stroke-width:2.55385;stroke-linecap:round;stroke-linejoin:round;stroke-miterlimit:4;stroke-dasharray:none;stroke-opacity:1"
         id="path1208" />
    </g>
    <g
       id="g1210"
       transform="matrix(0.16992741,-0.35277777,0.35276895,0.16992317,-89.218217,35.859872)">
      <path
         d="M 213.271,574.07 202.918,535.181 169.795,511.795 125.713,494.142"
         style="fill:none;stroke:#000000;stroke-width:2.55385;stroke-linecap:round;stroke-linejoin:round;stroke-miterlimit:4;stroke-dasharray:none;stroke-opacity:1"
         id="path1212" />
    </g>
    <g
       id="g1214"
       transform="matrix(0.16992741,-0.35277777,0.35276895,0.16992317,-89.218217,35.859872)">
      <path
         d="m 169.795,511.795 28.702,-23.407 4.421,46.793"
         style="fill:none;stroke:#000000;stroke-width:2.55385;stroke-linecap:round;stroke-linejoin:round;stroke-miterlimit:4;stroke-dasharray:none;stroke-opacity:1"
         id="path1216" />
    </g>
    <g
       id="g1218"
       transform="matrix(0.16992741,-0.35277777,0.35276895,0.16992317,-89.218217,35.859872)">
      <path
         d="m 198.497,488.388 -1.518,-46.392 6.901,-9.297"
         style="fill:none;stroke:#000000;stroke-width:2.55385;stroke-linecap:round;stroke-linejoin:round;stroke-miterlimit:4;stroke-dasharray:none;stroke-opacity:1"
         id="path1220" />
    </g>
    <g
       id="g1222"
       transform="matrix(0.16992741,-0.35277777,0.35276895,0.16992317,-89.218217,35.859872)">
      <path
         d="m 189.129,398.538 7.85,43.458"
         style="fill:none;stroke:#000000;stroke-width:2.55385;stroke-linecap:round;stroke-linejoin:round;stroke-miterlimit:4;stroke-dasharray:none;stroke-opacity:1"
         id="path1224" />
    </g>
    <g
       id="g1226"
       transform="matrix(0.16992741,-0.35277777,0.35276895,0.16992317,-89.218217,35.859872)">
      <path
         d="m 137.193,318.1 -16.304,22.045 42.335,14.425"
         style="fill:none;stroke:#000000;stroke-width:2.55385;stroke-linecap:round;stroke-linejoin:round;stroke-miterlimit:4;stroke-dasharray:none;stroke-opacity:1"
         id="path1228" />
    </g>
    <g
       id="g1230"
       transform="matrix(0.16992741,-0.35277777,0.35276895,0.16992317,-89.218217,35.859872)">
      <path
         d="m 120.889,340.145 -28.503,28.41 -3.694,40.382 6.753,47.002"
         style="fill:none;stroke:#000000;stroke-width:2.55385;stroke-linecap:round;stroke-linejoin:round;stroke-miterlimit:4;stroke-dasharray:none;stroke-opacity:1"
         id="path1232" />
    </g>
    <g
       id="g1234"
       transform="matrix(0.16992741,-0.35277777,0.35276895,0.16992317,-89.218217,35.859872)">
      <path
         d="M 88.692,408.937 54.072,395.784 92.386,368.555"
         style="fill:none;stroke:#000000;stroke-width:2.55385;stroke-linecap:round;stroke-linejoin:round;stroke-miterlimit:4;stroke-dasharray:none;stroke-opacity:1"
         id="path1236" />
    </g>
    <g
       id="g1238"
       transform="matrix(0.16992741,-0.35277777,0.35276895,0.16992317,-89.218217,35.859872)">
      <path
         d="M 54.072,395.784 14.654,420.292 3.151,418.965"
         style="fill:none;stroke:#000000;stroke-width:2.55385;stroke-linecap:round;stroke-linejoin:round;stroke-miterlimit:4;stroke-dasharray:none;stroke-opacity:1"
         id="path1240" />
    </g>
    <g
       id="g1242"
       transform="matrix(0.16992741,-0.35277777,0.35276895,0.16992317,-89.218217,35.859872)">
      <path
         d="M -19.058,448.82 14.654,420.292"
         style="fill:none;stroke:#000000;stroke-width:2.55385;stroke-linecap:round;stroke-linejoin:round;stroke-miterlimit:4;stroke-dasharray:none;stroke-opacity:1"
         id="path1244" />
    </g>
    <g
       id="g1246"
       transform="matrix(0.16992741,-0.35277777,0.35276895,0.16992317,-89.218217,35.859872)">
      <path
         d="m 77.498,501.253 17.947,-45.314 30.268,38.203 z"
         style="fill:none;stroke:#000000;stroke-width:2.55385;stroke-linecap:round;stroke-linejoin:round;stroke-miterlimit:4;stroke-dasharray:none;stroke-opacity:1"
         id="path1248" />
    </g>
    <path
       d="m 92.394954,148.87152 -3.890433,-0.1337 -11.231033,-13.47999 -11.400367,-16.40981 -6.757811,-12.90814 -3.614561,-9.772996 4.2926,0.61348 11.01725,13.363916 11.2268,15.25517 6.920441,13.73893 z"
       style="fill:#ececec;fill-opacity:0.788644;fill-rule:evenodd;stroke:none;stroke-width:0.352778"
       id="path1250" />
    <path
       d="m 50.39923,81.32834 5.101519,14.838544 4.2926,0.61348 z"
       style="fill:#fbfbfb;fill-opacity:0.788644;fill-rule:evenodd;stroke:none;stroke-width:0.352778"
       id="path1252" />
    <path
       d="m 82.037399,125.39945 3.686175,-16.01717 -14.912975,0.762 z"
       style="fill:#fbfbfb;fill-opacity:0.788644;fill-rule:evenodd;stroke:none;stroke-width:0.352778"
       id="path1254" />
    <path
       d="m 92.394954,148.87152 -3.437114,-9.73314 17.24766,-0.59266 z"
       style="fill:#d9d9d9;fill-opacity:0.788644;fill-rule:evenodd;stroke:none;stroke-width:0.352778"
       id="path1256" />
    <path
       d="m 120.93961,125.29044 8.68433,-15.86265 1.61643,4.02378 z"
       style="fill:#fbfbfb;fill-opacity:0.788644;fill-rule:evenodd;stroke:none;stroke-width:0.352778"
       id="path1258" />
    <path
       d="m 135.68854,93.204254 -8.11529,-12.53455 -18.65172,1.3462 -15.037148,10.54206 -8.160808,16.824316 -3.686175,16.01717 6.920441,13.73893 17.24766,-0.59266 14.73411,-13.25528 8.68433,-15.86265 z"
       style="fill:#ececec;fill-opacity:0.788644;fill-rule:evenodd;stroke:none;stroke-width:0.352778"
       id="path1260" />
    <path
       d="m 92.273598,74.262907 1.610784,18.295057 15.037148,-10.54206 z"
       style="fill:#fbfbfb;fill-opacity:0.788644;fill-rule:evenodd;stroke:none;stroke-width:0.352778"
       id="path1262" />
    <path
       d="m 44.248902,44.817252 2.061634,-3.303411 17.288933,-2.985911 19.912541,-1.66758 14.557727,0.60078 10.270423,1.755775 -2.67759,3.410656 -17.082202,2.860675 -18.823869,2.094441 -15.359591,-0.874889 z"
       style="fill:#fbfbfb;fill-opacity:0.788644;fill-rule:evenodd;stroke:none;stroke-width:0.352778"
       id="path1264" />
    <path
       d="m 123.74243,42.217986 -15.40227,-3.001081 -2.67759,3.410656 z"
       style="fill:#fbfbfb;fill-opacity:0.788644;fill-rule:evenodd;stroke:none;stroke-width:0.352778"
       id="path1266" />
    <path
       d="M 69.756499,47.582677 81.782693,58.783371 88.580368,45.488236 Z"
       style="fill:#fbfbfb;fill-opacity:0.788644;fill-rule:evenodd;stroke:none;stroke-width:0.352778"
       id="path1268" />
    <path
       d="m 44.248902,44.817252 10.148006,1.890536 -8.110009,15.232945 z"
       style="fill:#fbfbfb;fill-opacity:0.788644;fill-rule:evenodd;stroke:none;stroke-width:0.352778"
       id="path1270" />
    <path
       d="m 50.39923,81.32834 9.394119,15.452024 -4.2926,-0.61348 z"
       style="fill:#fbfbfb;fill-opacity:0.788644;fill-rule:evenodd;stroke:none;stroke-width:0.352778"
       id="path1272" />
    <path
       d="m 70.810599,110.14428 14.912975,-0.762 L 93.884382,92.557964 92.273598,74.262907 81.782693,58.783371 69.756499,47.582677 54.396908,46.707788 46.286899,61.940733 50.39923,81.32834 59.793349,96.780364 Z"
       style="fill:#fbfbfb;fill-opacity:0.788644;fill-rule:evenodd;stroke:none;stroke-width:0.352778"
       id="path1274" />
    <path
       d="m 158.43601,55.146938 1.82845,3.436761 -6.0579,16.466255 -8.51183,18.07845 -7.79991,12.307356 -6.65445,8.01581 -1.61643,-4.02378 6.0646,-16.223536 7.59707,-17.351025 8.43915,-12.86263 z"
       style="fill:#d9d9d9;fill-opacity:0.788644;fill-rule:evenodd;stroke:none;stroke-width:0.352778"
       id="path1276" />
    <path
       d="m 120.93961,125.29044 10.30076,-11.83887 -1.61643,-4.02378 z"
       style="fill:#d9d9d9;fill-opacity:0.788644;fill-rule:evenodd;stroke:none;stroke-width:0.352778"
       id="path1278" />
    <path
       d="m 143.28561,75.853229 -15.71236,4.816475 8.11529,12.53455 z"
       style="fill:#ececec;fill-opacity:0.788644;fill-rule:evenodd;stroke:none;stroke-width:0.352778"
       id="path1280" />
    <path
       d="m 158.43601,55.146938 -6.71125,7.843661 -9.13624,-14.640277 z"
       style="fill:#fbfbfb;fill-opacity:0.788644;fill-rule:evenodd;stroke:none;stroke-width:0.352778"
       id="path1282" />
    <path
       d="m 123.74243,42.217986 -18.07986,0.409575 2.67759,-3.410656 z"
       style="fill:#fbfbfb;fill-opacity:0.788644;fill-rule:evenodd;stroke:none;stroke-width:0.352778"
       id="path1284" />
    <path
       d="m 88.580368,45.488236 -6.797675,13.295135 10.490905,15.479536 16.647932,7.752997 18.65172,-1.3462 15.71236,-4.816475 8.43915,-12.86263 -9.13624,-14.640277 -18.84609,-6.132336 -18.07986,0.409575 z"
       style="fill:#fbfbfb;fill-opacity:0.788644;fill-rule:evenodd;stroke:none;stroke-width:0.352778"
       id="path1286" />
    <g
       id="g1288"
       transform="matrix(0.16992741,-0.35277777,0.35277777,0.16992741,-89.218217,35.859872)">
      <path
         d="m -62.747,534.005 18.568,-40.779 25.121,-44.417 22.209,-29.854 19.662,-19.663 27.306,-27.668 40.05,-30.947 37.139,-23.667 9.885,1.082 26.031,36.469 25.905,43.968 14.751,34.16 7.198,26.857 10.309,37.483 6.778,50.158 1.925,43.994 -5.88,8.016 -44.6,4.311 -51.029,0.451 -36.96,-4.306 -26.857,-7.196 -37.617,-9.811 -46.827,-19.209 -39.063,-20.333 z"
         style="fill:none;stroke:#000000;stroke-width:5.10764;stroke-linecap:round;stroke-linejoin:round;stroke-miterlimit:4;stroke-dasharray:none;stroke-opacity:1"
         id="path1290" />
    </g>
    <g
       id="g1292"
       transform="matrix(0.16992741,-0.35277777,0.35276895,0.16992317,-89.218217,35.859872)">
      <path
         d="m -58.742,543.121 18.584,-18.698 23.941,-31.15 21.884,-41.707 19.311,-41.193 -3.347,-10.556"
         style="fill:none;stroke:#000000;stroke-width:2.55385;stroke-linecap:round;stroke-linejoin:round;stroke-miterlimit:4;stroke-dasharray:none;stroke-opacity:1"
         id="path1294" />
    </g>
    <g
       id="g1296"
       transform="matrix(0.16992741,-0.35277777,0.35276895,0.16992317,-89.218217,35.859872)">
      <path
         d="m 50.119,371.633 -25.141,38.74"
         style="fill:none;stroke:#000000;stroke-width:2.55385;stroke-linecap:round;stroke-linejoin:round;stroke-miterlimit:4;stroke-dasharray:none;stroke-opacity:1"
         id="path1298" />
    </g>
    <g
       id="g1300"
       transform="matrix(0.16992741,-0.35277777,0.35276895,0.16992317,-89.218217,35.859872)">
      <path
         d="M -19.68,563.45 -40.158,524.423"
         style="fill:none;stroke:#000000;stroke-width:2.55385;stroke-linecap:round;stroke-linejoin:round;stroke-miterlimit:4;stroke-dasharray:none;stroke-opacity:1"
         id="path1302" />
    </g>
    <g
       id="g1304"
       transform="matrix(0.16992741,-0.35277777,0.35276895,0.16992317,-89.218217,35.859872)">
      <path
         d="M -16.217,493.273 24.72,484.003 6.439,450.534"
         style="fill:none;stroke:#000000;stroke-width:2.55385;stroke-linecap:round;stroke-linejoin:round;stroke-miterlimit:4;stroke-dasharray:none;stroke-opacity:1"
         id="path1306" />
    </g>
    <g
       id="g1308"
       transform="matrix(0.16992741,-0.35277777,0.35276895,0.16992317,-89.218217,35.859872)">
      <path
         d="M 72.475,484.133 24.72,484.003"
         style="fill:none;stroke:#000000;stroke-width:2.55385;stroke-linecap:round;stroke-linejoin:round;stroke-miterlimit:4;stroke-dasharray:none;stroke-opacity:1"
         id="path1310" />
    </g>
    <g
       id="g1312"
       transform="matrix(0.16992741,-0.35277777,0.35276895,0.16992317,-89.218217,35.859872)">
      <path
         d="m 127.308,317.018 6.896,25.444 15.01,36.31 25.177,39.807 26.018,37.317 10.814,2.38"
         style="fill:none;stroke:#000000;stroke-width:2.55385;stroke-linecap:round;stroke-linejoin:round;stroke-miterlimit:4;stroke-dasharray:none;stroke-opacity:1"
         id="path1314" />
    </g>
    <g
       id="g1316"
       transform="matrix(0.16992741,-0.35277777,0.35276895,0.16992317,-89.218217,35.859872)">
      <path
         d="M 221.387,497.041 200.409,455.896"
         style="fill:none;stroke:#000000;stroke-width:2.55385;stroke-linecap:round;stroke-linejoin:round;stroke-miterlimit:4;stroke-dasharray:none;stroke-opacity:1"
         id="path1318" />
    </g>
    <g
       id="g1320"
       transform="matrix(0.16992741,-0.35277777,0.35276895,0.16992317,-89.218217,35.859872)">
      <path
         d="m 90.169,340.685 44.035,1.777"
         style="fill:none;stroke:#000000;stroke-width:2.55385;stroke-linecap:round;stroke-linejoin:round;stroke-miterlimit:4;stroke-dasharray:none;stroke-opacity:1"
         id="path1322" />
    </g>
    <g
       id="g1324"
       transform="matrix(0.16992741,-0.35277777,0.35276895,0.16992317,-89.218217,35.859872)">
      <path
         d="m 149.214,378.772 -12.443,40.084 38.124,0.906"
         style="fill:none;stroke:#000000;stroke-width:2.55385;stroke-linecap:round;stroke-linejoin:round;stroke-miterlimit:4;stroke-dasharray:none;stroke-opacity:1"
         id="path1326" />
    </g>
    <g
       id="g1328"
       transform="matrix(0.16992741,-0.35277777,0.35276895,0.16992317,-89.218217,35.859872)">
      <path
         d="m 112.782,460.151 23.989,-41.295"
         style="fill:none;stroke:#000000;stroke-width:2.55385;stroke-linecap:round;stroke-linejoin:round;stroke-miterlimit:4;stroke-dasharray:none;stroke-opacity:1"
         id="path1330" />
    </g>
    <g
       id="g1332"
       transform="matrix(0.16992741,-0.35277777,0.35276895,0.16992317,-89.218217,35.859872)">
      <path
         d="m 230.09,591.195 -25.484,-6.748 -38.948,-5.161 -47.063,1.904 -45.326,3.872 -7.467,8.179"
         style="fill:none;stroke:#000000;stroke-width:2.55385;stroke-linecap:round;stroke-linejoin:round;stroke-miterlimit:4;stroke-dasharray:none;stroke-opacity:1"
         id="path1334" />
    </g>
    <g
       id="g1336"
       transform="matrix(0.16992741,-0.35277777,0.35276895,0.16992317,-89.218217,35.859872)">
      <path
         d="m 27.147,582.66 46.122,2.402"
         style="fill:none;stroke:#000000;stroke-width:2.55385;stroke-linecap:round;stroke-linejoin:round;stroke-miterlimit:4;stroke-dasharray:none;stroke-opacity:1"
         id="path1338" />
    </g>
    <g
       id="g1340"
       transform="matrix(0.16992741,-0.35277777,0.35276895,0.16992317,-89.218217,35.859872)">
      <path
         d="m 228.165,547.2 -23.559,37.247"
         style="fill:none;stroke:#000000;stroke-width:2.55385;stroke-linecap:round;stroke-linejoin:round;stroke-miterlimit:4;stroke-dasharray:none;stroke-opacity:1"
         id="path1342" />
    </g>
    <g
       id="g1344"
       transform="matrix(0.16992741,-0.35277777,0.35276895,0.16992317,-89.218217,35.859872)">
      <path
         d="m 165.658,579.286 -28.494,-30.815 -19.846,32.564"
         style="fill:none;stroke:#000000;stroke-width:2.55385;stroke-linecap:round;stroke-linejoin:round;stroke-miterlimit:4;stroke-dasharray:none;stroke-opacity:1"
         id="path1346" />
    </g>
    <g
       id="g1348"
       transform="matrix(0.16992741,-0.35277777,0.35276895,0.16992317,-89.218217,35.859872)">
      <path
         d="m 113.395,507.048 23.769,41.423"
         style="fill:none;stroke:#000000;stroke-width:2.55385;stroke-linecap:round;stroke-linejoin:round;stroke-miterlimit:4;stroke-dasharray:none;stroke-opacity:1"
         id="path1350" />
    </g>
    <g
       id="g1352"
       transform="matrix(0.16992741,-0.35277777,0.35276895,0.16992317,-89.218217,35.859872)">
      <path
         d="m 72.475,484.133 40.307,-23.982 0.613,46.897 z"
         style="fill:none;stroke:#000000;stroke-width:2.55385;stroke-linecap:round;stroke-linejoin:round;stroke-miterlimit:4;stroke-dasharray:none;stroke-opacity:1"
         id="path1354" />
    </g>
  </g>
</svg>
