<svg width="186" height="30" viewBox="0 0 186 30" fill="none" xmlns="http://www.w3.org/2000/svg">
    <path d="M137.848 13.205c-1.017.063-1.885.847-2.544 1.535a13.556 13.556 0 0 0-1.556 1.988l-.125.213s-.441.71-.632.946c-.807 1.024-1.991 2.418-3.426 2.486-1.388.064-3.088-.847-3.315-2.273-.437-2.73 2.749-5.307 5.246-3.56.66.463 1.129 1.038 1.625 1.658.038.046.084.113.14.19l.042.055.125-.186c-.571-.838-1.133-1.666-1.945-2.314-.776-.616-1.626-.964-2.633-.788a3.737 3.737 0 0 0-2.159 1.205c-1.119 1.263-1.184 3.206-.353 4.637.827 1.422 2.753 2.78 4.476 2.015 1.407-.62 2.451-2.079 3.241-3.324l.116-.19s.325-.471.432-.611c.385-.517.798-1.015 1.258-1.472 1.063-1.05 2.261-1.694 3.784-1.141 1.453.525 2.252 1.906 1.931 3.396-.348 1.63-1.95 2.807-3.631 2.807-1.439 0-2.646-1.453-3.431-2.468l-.018-.022-.112.176c.845 1.218 1.779 2.532 3.241 3.025 1.978.67 4.374-1.136 4.448-3.124.246-2.319-1.639-5.022-4.22-4.864l-.005.005z" fill="url(#xen4ytwv1a)"/>
    <path d="M149.985 21.338A41410.79 41410.79 0 0 1 130.201.616c-.455-.48-1.184-.29-1.37.286-.181.575-8.357 26.485-8.501 26.956-.162.521.302 1.1.934.96.575-.127 23.994-5.248 28.321-6.203.692-.154.743-.91.395-1.277h.005zm-1.133-.014c-.056.072-.158.027-.274-.005-.121-.036-5.112-1.553-5.92-1.806-.084-.023-.107-.018-.135.04-.023.05-.051.105-.069.154-.019.05-.01.095.069.123.079.027 5.948 1.951 5.948 1.951s.162.05.158.19c-.005.14-.116.168-.191.186l-26.292 5.76c-.121.027-.256.059-.293-.054-.037-.113.102-.222.102-.222s6.37-5.746 6.408-5.783c.041-.04.041-.059 0-.077l-.237-.113a.067.067 0 0 0-.075.01c-.027.022-6.449 5.637-6.449 5.637s-.055.059-.143.059a.17.17 0 0 1-.172-.168c0-.036.014-.086.014-.086l7.916-25.095c.046-.14.121-.159.195-.154.079 0 .144.1.172.199.051.186 2.73 10.397 3.18 12.018.051.186.102.258.167.353.065.09.144.213.191.272.074.095.097.122.157.077.047-.036.038-.036-.023-.258-.037-.136-3.203-12.566-3.203-12.566-.075-.272.092-.385.297-.154.185.213 18.293 19.204 18.321 19.186l.032.032c.042.045.204.217.144.299l.005-.005z" fill="url(#vgmjnx320b)"/>
    <path d="M170.998.304c-8.055 0-14.606 6.39-14.606 14.246 0 7.856 6.551 14.245 14.606 14.245 8.056 0 14.607-6.389 14.607-14.245 0-7.857-6.556-14.246-14.607-14.246zm0 28.098c-7.832 0-14.198-6.213-14.198-13.852 0-7.64 6.37-13.848 14.198-13.848s14.198 6.213 14.198 13.848c0 7.634-6.37 13.852-14.198 13.852z" fill="#12120D"/>
    <path d="M179.569 13.459c-.204-.413-.065-.684-.125-.983-.047-.222-.386-.956-.599-1.463-.102-.24.524-.18.06-1.041-.014-.027.641-.263-.014-.747-.367-.272-.627-.607-.826-.906-.028-.04-.056-.122 0-.177.371-.321.376-.783-.023-1.018-.293-.173-.623 0-.929.194-.102.064-.153.104-.255.064a1.846 1.846 0 0 1-.251-.154c.376-.358.45-.711.422-.766-.018-.04-.64-.176-1.411.136l-.056-.027c.316-.534.14-.91.116-.937.576-.788 1.152-1.309 1.714-1.812l.014-.013c.037-.036.051-.077-.019-.118-.06-.036-.074-.045-.149-.081a13.134 13.134 0 0 0-6.24-1.572c-7.08 0-12.837 5.62-12.837 12.52 0 4 2.08 7.862 5.483 10.257.227.159.385.222.385.222.056.018.116.018.149-.027l.051-.063a.192.192 0 0 0 .046-.114c0-.09-.134-.172-.292-.403a3.703 3.703 0 0 1-.664-2.055c0-.693.218-1.323.631-1.848.511.52 1.63 1.476 1.607 2.35-.028.978-.966.928-.762 1.662.126.462.479.272.544.62.106.607.937.992 1.304.938.088-.014.163.059.339.23.246.245.859.213 1.128.164.256-.046.581.185 1.119.127.674-.073.845-.123 1.133-.127.488-.01 3.134-.046 5.019.244.325.05.427-.095.283-.34-.682-1.159-.775-2.141-.385-3.382.697.045 1.695.231 3.013-.543.469-.272.729-.856.706-1.29-.014-.282-.139-.64-.065-.916.102-.37.176-.362.283-.434.502-.344.14-.62.061-.648.153-.059.32-.38.144-.62-.089-.095-.363-.842-.047-1 .339-.169.729-.24 1.124-.409.269-.108.483-.416.329-.824-.185-.489-1.211-2.785-1.244-2.852l-.014-.018zm-14.175 11.148c-.097.018-.413.032-.343-.371.042-.25.32-.354.464-.213-.028.195-.097.385-.121.584zm12.104-17.09c.168-.104.344-.144.451-.045.367.353-.395.548-.237.82.26.444.673.87 1.04 1.14.172.128.195.418-.46.553-.659.132-3.287.81-4.675 2.242-1.737 1.793-2.842 4.116-2.99 3.799-.153-.322-.502-.376-.446-.466 2.493-4.189 6.398-7.481 7.317-8.043zm1.143 2.944c-.144.398-1.277.756-1.222.475.024-.127 0-.294.089-.308.125-.022.483-.145 1.04-.28.055-.014.13.018.093.117v-.004zm-2.87.724c-.028-.163 1.189-.561 1.231-.443.079.217-.251.801-.66.95-.464.168-.654.118-.636.055.033-.118.093-.408.065-.557v-.005zm-2.823 6.19c-.561.335-.863-.303-.942-.416a.525.525 0 0 1-.074-.43c.037-.19.069-.449-.056-1.264-.056-.357.706-1.25.877-1.404.177-.163.437.082.455.345.033.498-.255.76-.548.973-.362.263-.427.602-.362.693.028.036.191.036.26-.113.219-.448.836-.675.934-.915.153-.367.041-.607.027-.76-.014-.136.121-.168.223-.155.13.019.191.195.256.363.399 1.019-.609 1.634-.771 1.874-.074.114.158.938-.279 1.2v.01zm.845-3.948c-.301.2-.733-.073-.645-.19a6.032 6.032 0 0 1 1.597-1.495c.478-.29.529-.308.553-.145.014.1.018.607-.367 1.02-.321.339-.641.312-.803.348-.112.023-.103.312-.335.466v-.004zm-2.679 3.477c-.139-.031-.19-.29-.162-.393.06-.231.427-.707.557-.874.033-.041.098 0 .107.045.079.552 0 1.331-.502 1.222zm4.476-10.057c.502-.222.989-.226 1.04-.217.116.014-.255.652-.91.928-.678.286-1.184.335-1.24.308-.088-.04.572-.779 1.11-1.014v-.005zm-11.589 10.619c-.199-.226-.385-.349-.408-.335-.056.036-.381.58-.492 1.213-.632-1.181-.985-2.372-1.04-3.79-.195-4.804 3.932-8.671 8.965-8.653 1.147 0 2.094.213 3.125.62a3.44 3.44 0 0 0-.511.901c-.005-.262-.074-.461-.056-.625.014-.1-.715.123-1.355 1.119-.149.23-.242.489-.302.724-.014-.375-.102-.665-.13-.66-.065.017-.803.312-1.184 1.19a3.023 3.023 0 0 0-.153.467c-.033-.267-.102-.444-.126-.444-.046 0-.817.312-1.198 1.209a2.255 2.255 0 0 0-.157.62c-.07-.312-.191-.507-.233-.457-.264.33-.784.475-1.063 1.304-.065.195-.093.39-.093.57-.116-.28-.274-.443-.311-.434-.074.013-.859.743-.975 1.476-.046.29-.023.557.024.784-.149-.236-.349-.408-.432-.652-.126.063-.79.674-.808 1.453a2.87 2.87 0 0 0 .102.829c-.223-.39-.534-.575-.571-.553-.056.037-.553.557-.669 1.5-.027.221 0 .43.056.62l-.005.004zm10.308-10.809c.394-.457 1.068-.824 1.142-.779.079.046-.112.752-.548 1.169-.436.42-1.114.828-1.193.824-.079-.005.241-.802.599-1.214zm-1.286 1.766a3.016 3.016 0 0 0-.785.86c-.074.123-.265-.674.237-1.44.306-.466.914-.887.9-.833-.046.186.298.897-.357 1.409l.005.004zm-1.412 1.019c-.469.684-.497.448-1.012 1.118-.028.037-.037-.873.144-1.272.288-.634.794-1.005.868-1.019.074-.013.26.793 0 1.173zm-1.541 1.367c-.242.413-.465.318-.864.902-.046.063-.153-.485.088-1.223.186-.57.762-.924.822-.942.093-.023.242.77-.046 1.264zm-1.435 1.45c-.246.525-.404.538-.692.864-.051.055-.264-.498-.055-1.195.167-.557.547-.76.733-.951.074-.072.274.725.014 1.277v.005zm-1.165.896c0 .159-.019.25-.065.408-.177.588-.53.837-.725 1.104-.079-.171-.218-.42-.222-.796 0-.711.441-1.318.719-1.513.107 0 .293.43.293.797zm-1.189 1.739c-.014.829-.548 1.313-.706 1.467a2.384 2.384 0 0 1-.306-1.028c-.028-.856.334-1.155.492-1.322.074.245.525.44.52.883zm-1.681.851c.246.123.539.467.567 1.11.028.647-.446 1.19-.632 1.277-.13-.494-.376-.598-.371-1.087.005-.535.283-1.123.432-1.304l.004.004zm1.013 1.703c.636-.272 1.332-.227 1.36-.204.028.027-.204.793-.822 1.114-.617.322-1.318.353-1.379.276-.037-.04.204-.919.841-1.186zm-.047-.457c.042-.204.418-.888.984-1.137.571-.25 1.231-.231 1.305-.2.074.032-.237.757-.808 1.024-.641.299-.896.122-1.481.308v.005zm.957-1.599c.027-.063.492-.874 1.035-1.123.538-.245 1.193-.195 1.235-.181.046.014-.246.734-.864 1.032-.613.295-1.43.336-1.406.272zm1.239-1.621c-.046-.032.613-.874 1.161-1.119.483-.217 1.114-.172 1.165-.135.051.036-.255.742-.891 1.014-.608.258-1.388.276-1.435.244v-.004zm1.486-1.603c-.037-.018.464-.851 1.031-1.064.538-.204 1.072-.018 1.235-.01.13.01-.186.612-.924.88-.618.221-1.249.24-1.342.194zm1.671-1.544c.01-.04.562-.797 1.133-.987.543-.181 1.203-.06 1.272-.032.07.027-.385.688-1.077.892-.627.181-1.337.163-1.328.127zm1.686-1.336c-.075-.05.594-.774 1.137-.978.53-.195 1.105-.159 1.152-.136.046.023-.349.657-.989.91-.604.24-1.226.254-1.3.204zm-9.23 14.82c-3.009-2.336-4.81-5.863-4.81-9.545 0-6.683 5.576-12.122 12.433-12.122 2.001 0 4.007.49 5.767 1.381.037.019.042.064.009.091-.515.44-1.235 1.304-1.416 1.544a10.42 10.42 0 0 0-4.36-.946c-5.683 0-10.302 4.505-10.302 10.048 0 2.472.859 4.727 2.479 6.539-.093.208-.26.67-.26 1.281 0 .503.097 1.082.46 1.725v.005zm.018-3.373h-.004c-1.495-1.711-2.285-3.844-2.285-6.172 0-5.32 4.439-9.65 9.894-9.65 1.44 0 2.823.295 4.119.875a2.55 2.55 0 0 0-.567.353 9.043 9.043 0 0 0-3.547-.693c-5.154 0-9.351 4.09-9.351 9.115 0 2.183.697 4.098 2.066 5.706-.079.118-.19.28-.315.47l-.01-.004zm.492-.756c-.181-.167-.571-.588-.608-1.132v-.077c0-.584.265-1.16.33-1.223.065-.063.743.449.752 1.187.009.638-.293 1.005-.469 1.254l-.005-.009zm1.115-.978c.538-.249 1.337-.19 1.295-.154-.042.036-.255.793-.859 1.091-.603.295-1.003.218-1.221.177.325-.349.255-.865.789-1.11l-.004-.004zm.724 6.303c-.093-.357-.056-.851.07-.982.241-.113.682-.159.691-.023.014.217-.153.738.042 1.386-.042.104-.645.059-.798-.38h-.005zm.042-1.498c-.047-.268.218-.53.213-1.114-.004-.72-.919-1.708-1.536-2.346.287 0 .668-.068 1.095-.258.92-.417 1.101-1.368 1.124-1.404.014-.018-.204-.059-.52-.063.032-.018.069-.032.102-.05.901-.471 1.133-1.485 1.091-1.508a2.326 2.326 0 0 0-.552-.036c.088-.027.176-.06.273-.095.952-.367 1.217-1.4 1.184-1.436-.014-.013-.204-.05-.482-.059a2.66 2.66 0 0 0 .26-.113c.868-.421 1.17-1.367 1.123-1.4-.018-.013-.195-.044-.45-.049.195-.04.404-.104.627-.2.928-.398 1.23-1.263 1.188-1.303-.018-.014-.176-.06-.413-.077.186-.041.39-.095.604-.168.919-.308 1.29-1.164 1.235-1.168-.126-.01-.298-.068-.516-.109.251-.013.543-.059.91-.18.994-.327 1.347-.911 1.365-1.165 0-.018-.121-.068-.311-.108.228-.041.455-.095.645-.172.929-.367 1.314-1.255 1.347-1.332a6.53 6.53 0 0 0 .539-.203c.097-.041.185-.086.269-.136.046.031.116.086.227.15.14.085.191.108.121.167-3.157 2.626-5.525 5.936-6.556 7.548-.028.045-.083.037-.172.032-1.105-.072-1.731 1.213-1.239 2.418-.065.244-.59.715-.627.752-.042.036-.144.185.032.167.26-.022.59-.425.748-.607.065.082.311.277.19.39-.938.901-1.871 1.385-1.945 1.417-.353.168.59.285 2.187-1.127.093-.082.204.326.348.502-.274.883.404 2.595.297 3.13-.018.094-.074.357-.395.366-1.587.032-1.741-.04-2.548.195-.377.109-.279.349 0 .276.311-.081.636-.204 2.349-.1.418.028.901-.081.901-.774 0-.625-.506-2.495-.335-2.748.228.167.395.172.479.19-.024.611.984 2.576.533 3.663-.167.403-.896.371-2.145.254-2.126-.204-2.818.244-2.86-.005l-.004-.005zm4.884 1.34c-.826.28-1.151-.666-1.017-.865.084-.122.604.14 1.012-.118.312-.195.488.824.005.983zm-3.756.588c-.116-.498-.163-1.363.051-1.557.042-.036.678-.127.669.013-.051.598-.298 1.264.167 1.925.172.249-.734.285-.887-.38zm1.579.571c-.223-.054-.836-1.005-.335-2.142.051-.122.817-.045.947-.009s-.106.928.948 1.327c.106.04 0 1.2-1.556.824h-.004zm6.574-3.17c-.358 1.2-.534 1.68 0 2.98.07.172.125.303-.033.276-1.072-.181-1.304-.353-4.68-.072-.241.018.079-.458.042-.784.307-.04.799-.176.906-.665.125-.594-.298-1.028-.251-1.114.478-.91-.033-1.92-.437-3.61-.037-.158.056-.226.126-.153 2.168 2.287 3.552 2.744 4.294 2.961.075.023.061.104.033.181zm5.544-6.249c-.455.39-1.152.422-1.43.675-.149.131-.214.335-.056.702.093.213.153.235-.158.317-.506.131-.576.779-1.216.661-.256-.045-.075.113.018.122.367.032.515-.068.641-.185.13-.118.302-.33.497-.403.204-.077.408-.068.413.077 0 .113-.256.294-.362.344.13.068.534.267.19.493-.269.177-.636-.068-.692-.1-.079-.045-.232-.022-.181.037.2.235.734.176.636.299-.492.643-.093 1.023-.241 1.67-.153.657-1.073 1.02-1.783 1.142-2.414.426-4.764-1.58-6.143-3.088.126-.286.112-.662-.018-.53-.121.127-.098.335-.386.407-.552.136-.794-.801-.965-.964-.674-.643-.938-1.553-.539-2.346.404-.801 1.249-.643 1.588-.154.418.602.223.947.464 1.128.335.253.669.027.762 0 .255-.068.237.588 1.105.557.933-.032.826-1.45.961-1.576 1.198-1.141.585-2.155.367-2.391-.061-.063.134-.48.204-.498.706-.15 1.1-.589 1.314-1.055 0 0 1.17-.018 1.583-.842.112-.218.455.212 1.235-.385.088-.068.172-.037.204.045.502 1.2.711 1.53.674 2.142-.028.444 1.216 2.912 1.309 3.124.102.236.116.471 0 .57l.005.005z" fill="#12120D"/>
    <path d="M177.786 12.521c-.678.023-1.472.838-1.727.951-.269.118-.176.195-.018.136.338-.122.821-.625 1.485-.86.525-.186.492.235.692.212.093-.009-.042-.453-.432-.439zM177.939 13.169c-.055.013.061.294-.236.312-.641.036-1.147.63-1.537.806-.39.177-.469.172-.53.19-.051.014-.032.077.01.086 1.629.213 2.256.154 2.27.095.028-.108-.093-.163-.065-.235.06-.177.093-.512.023-.743-.028-.108.242-.036.242-.18 0-.078-.084-.354-.177-.331zm-.25 1.254c-.033.122-.757.068-1.156.032-.093-.01-.251-.023.051-.2.236-.14.566-.371.993-.453.037-.004.102 0 .121.082a1.27 1.27 0 0 1-.009.534v.005zM179.82 16.692c-.126 0-.627.222-.817.34-.107.067-.618.375-.585-.114.014-.172.125-.593.125-.706 0-.177-.149-.104-.153 0-.005.244-.056.43-.107.715-.042.245.172.548.511.372.283-.145.664-.399 1.003-.462.088-.018.102-.14.018-.145h.005zM170.376 18.426c-.097-.036-.07.158-.2.136-.171-.027-.027-.177-.25-.408-.112-.113-.39-.163-.595-.484-.325-.508-.046-1.635.428-1.477.264.091.218.689.139 1.096-.051.25.348.371.385.285.061-.144-.148-.13-.195-.267-.074-.203.488-1.028-.246-1.268-.534-.172-.887.485-.822 1.21.056.61.474.864.711.95.325.118.079.548.515.548.19 0 .232-.294.13-.33v.009zM174.657 4.832s.046 0 .065-.018l.905-1.118a.055.055 0 0 0-.023-.086l-.153-.06a.058.058 0 0 0-.065.019l-.91 1.123c-.024.031-.01.072.028.086l.157.054h-.004zM172.976 4.38c.051.008.102.017.158.031.028.005.056-.01.065-.032l.529-1.277a.05.05 0 0 0-.042-.072c-.06-.014-.116-.023-.176-.036-.014 0-.032.004-.037.018-.065.163-.437 1.055-.539 1.3-.014.031.01.067.042.072v-.005zM171.11 4.198h.158c.027 0 .055-.022.055-.05l.13-1.358c0-.032-.023-.059-.055-.059h-.158c-.028 0-.056.023-.056.05l-.13 1.358c0 .032.023.06.056.06zM169.299 4.334c.051-.009.102-.018.158-.023.032-.004.055-.036.046-.063l-.265-1.34c-.004-.027-.032-.05-.065-.046-.051.01-.106.014-.157.023a.056.056 0 0 0-.047.063l.265 1.336c.004.027.032.05.065.046v.004zM167.442 4.746a.06.06 0 0 0 .069.027c.051-.018.103-.031.149-.05.032-.009.046-.045.032-.076l-.626-1.232c-.014-.027-.042-.036-.07-.027l-.149.054c-.032.01-.046.045-.032.077l.627 1.227zM165.715 5.525s.046.023.069.013c.047-.027.093-.05.139-.077.033-.018.042-.058.014-.086L165 4.33s-.047-.022-.07-.013a17.11 17.11 0 0 0-.139.081c-.033.018-.037.06-.014.086l.938 1.042zM164.104 6.634s.051.014.069 0c.042-.036.084-.068.126-.104.027-.022.027-.068 0-.086l-1.189-.806s-.051-.013-.07 0l-.12.104a.055.055 0 0 0 .004.086l1.184.802-.004.004zM162.701 8.043s.051 0 .065-.018c.033-.041.07-.082.107-.123a.055.055 0 0 0-.023-.086l-1.365-.52a.058.058 0 0 0-.065.018c-.033.04-.065.086-.102.126-.024.028-.01.073.023.086l1.36.517zM160.12 9.5l1.462.2c.024 0 .047-.009.056-.027l.079-.145a.055.055 0 0 0-.042-.081l-1.472-.2a.068.068 0 0 0-.06.032c-.023.05-.051.095-.074.145-.019.032.004.072.042.077h.009zM159.321 11.665l1.491-.14s.041-.018.046-.04c.019-.055.033-.105.051-.16.014-.035-.018-.076-.06-.072l-1.5.14c-.023 0-.042.019-.051.041-.014.055-.028.11-.042.159a.056.056 0 0 0 .061.068l.004.004zM160.454 13.395c.005-.054.014-.113.019-.167a.056.056 0 0 0-.075-.06l-1.453.494s-.037.027-.037.05c0 .054-.009.113-.009.168 0 .04.037.068.074.054l1.444-.49s.037-.022.037-.044v-.005zM160.417 15.329c0-.06-.009-.118-.014-.177 0-.04-.051-.068-.088-.045l-1.319.842s-.027.031-.023.054c.009.06.014.113.023.168.005.04.051.059.089.036l1.304-.838s.028-.031.023-.05l.005.01zM160.747 17.267c-.014-.06-.033-.118-.047-.177-.009-.045-.065-.059-.097-.023l-1.073 1.15s-.018.037-.014.055c.019.054.038.109.061.167.014.041.065.05.097.018l1.059-1.136s.018-.032.014-.05v-.004zM161.295 18.983l-.757 1.404s-.009.036 0 .054c.032.054.065.104.093.159.023.036.079.036.097 0l.748-1.386s.009-.036 0-.05c-.028-.059-.061-.113-.089-.172-.018-.04-.078-.04-.102 0l.01-.01zM162.358 20.559c-.028-.037-.089-.027-.102.018l-.404 1.625s0 .037.013.05c.042.05.084.095.126.14.032.032.088.019.097-.022l.4-1.608s0-.031-.01-.045c-.041-.054-.083-.104-.12-.158zM2.354 8.64l1.694 4.669L5.734 8.64H7.52v6.44H6.156v-1.762l.135-3.038-1.783 4.8h-.933l-1.778-4.796.134 3.034v1.761H.571V8.64h1.783zM12.981 13.753h-2.386l-.455 1.326H8.69l2.456-6.439h1.258l2.47 6.44h-1.448l-.46-1.327h.014zm-2.02-1.073h1.649l-.831-2.41-.822 2.41h.004zM18.33 10.86l1.24-2.22h1.564l-1.922 3.193 1.973 3.246h-1.583l-1.267-2.255-1.268 2.255h-1.583l1.973-3.246-1.922-3.193H17.1l1.24 2.22h-.01zM26.469 12.81v2.27h-1.36V8.64h2.576c.497 0 .934.09 1.31.268.376.176.664.43.868.756.204.326.302.697.302 1.114 0 .63-.223 1.127-.664 1.494-.441.367-1.054.548-1.839.548H26.47v-.01zm0-1.072h1.216c.358 0 .637-.082.822-.25.186-.167.284-.402.284-.706 0-.303-.098-.57-.288-.765-.19-.195-.455-.294-.79-.299h-1.249v2.02h.005zM32.923 14.015h2.887v1.064h-4.248V8.64h1.36v5.375zM40.867 13.753H38.48l-.455 1.326h-1.448l2.456-6.439h1.258l2.47 6.44h-1.449l-.46-1.327h.015zm-2.02-1.073h1.648l-.83-2.41-.823 2.41h.005zM49.22 15.08h-1.361l-2.647-4.239v4.239h-1.36V8.64h1.36l2.651 4.248V8.64h1.356v6.44zM56.054 12.933c-.051.693-.316 1.236-.785 1.635-.469.398-1.096.598-1.871.598-.845 0-1.514-.277-1.997-.834-.482-.557-.728-1.317-.728-2.286v-.394c0-.62.111-1.164.334-1.635.223-.47.543-.833.961-1.087.418-.253.9-.376 1.449-.376.761 0 1.374.2 1.838.598.464.399.734.956.808 1.676h-1.36c-.033-.417-.154-.716-.358-.906-.204-.19-.515-.28-.933-.28-.455 0-.794.158-1.017.475-.223.317-.339.81-.348 1.476v.484c0 .698.107 1.205.325 1.526.218.322.557.48 1.021.48.423 0 .734-.095.943-.28.209-.186.325-.476.357-.87h1.36zM59.48 12.498l-.706.743v1.838h-1.36V8.64h1.36v2.921l.6-.801 1.68-2.12h1.672l-2.345 2.862 2.414 3.577h-1.62L59.48 12.5zM67.995 15.08h-1.36V8.64h1.36v6.44zM75.085 15.08h-1.36l-2.647-4.239v4.239h-1.36V8.64h1.36l2.651 4.248V8.64h1.356v6.44zM80.164 13.39c0-.249-.093-.443-.274-.575-.18-.13-.506-.276-.98-.425a6.92 6.92 0 0 1-1.118-.44c-.748-.393-1.124-.928-1.124-1.598 0-.349.102-.657.302-.933s.487-.484.868-.638c.38-.154.799-.231 1.268-.231s.891.081 1.258.249c.367.167.655.403.859.706.204.304.306.648.306 1.037h-1.36c0-.294-.098-.525-.288-.688-.19-.163-.46-.245-.803-.245-.344 0-.59.068-.776.204a.64.64 0 0 0-.278.544c0 .208.107.385.325.525.218.14.534.276.956.398.776.227 1.337.508 1.69.847.353.34.53.756.53 1.254 0 .557-.219.997-.65 1.314-.432.317-1.013.475-1.746.475-.506 0-.97-.09-1.388-.272-.418-.18-.734-.43-.957-.747a1.848 1.848 0 0 1-.33-1.096h1.366c0 .711.436 1.065 1.304 1.065.325 0 .576-.064.757-.19a.623.623 0 0 0 .274-.54h.01zM87.88 9.714h-2.023v5.365h-1.36V9.714H82.5V8.64h5.376v1.074h.005zM90.57 15.08h-1.361V8.64h1.36v6.44zM97.13 9.714h-2.025v5.365h-1.36V9.714h-1.997V8.64h5.377v1.074h.004zM103.365 8.64v4.243c0 .707-.228 1.264-.678 1.671-.45.408-1.068.616-1.852.616-.785 0-1.384-.2-1.839-.598-.455-.398-.682-.946-.692-1.639V8.645h1.36v4.247c0 .421.103.73.312.924.209.195.492.29.859.29.766 0 1.151-.394 1.165-1.177V8.645h1.365V8.64zM109.916 9.714h-2.024v5.365h-1.361V9.714h-1.996V8.64h5.376v1.074h.005zM115.125 12.29h-2.609v1.725h3.064v1.064h-4.424V8.64h4.415v1.074h-3.055v1.535h2.609v1.041zM6.1 20.034H4.178v1.883H3.83v-4.025h2.558v.285H4.183v1.567h1.922v.285l-.005.005zM10.576 20.12c0 .37-.065.697-.195.973-.13.28-.32.494-.562.648-.246.15-.524.226-.845.226-.482 0-.872-.168-1.17-.503-.297-.335-.445-.787-.445-1.363v-.416c0-.367.065-.693.2-.974.134-.28.32-.502.566-.652.241-.154.524-.226.84-.226.316 0 .599.077.84.222.242.15.432.362.562.634.13.271.2.588.21.946v.485zm-.348-.435c0-.485-.111-.865-.339-1.137-.223-.276-.534-.412-.924-.412s-.687.136-.915.412c-.227.276-.343.661-.343 1.155v.421c0 .476.111.856.339 1.132.227.28.534.417.924.417s.7-.136.924-.412c.223-.277.33-.662.33-1.15v-.426h.004zM13.432 20.237h-1.198v1.68h-.353v-4.025h1.342c.44 0 .784.104 1.03.312.246.208.372.498.372.874 0 .258-.08.485-.232.684a1.177 1.177 0 0 1-.623.407l1.031 1.712v.036h-.371l-.998-1.68zm-1.198-.285h1.068c.292 0 .529-.082.705-.245a.816.816 0 0 0 .265-.629c0-.285-.093-.503-.279-.661-.185-.159-.445-.236-.78-.236h-.984v1.77h.005zM18.316 17.892l1.523 3.55 1.527-3.55h.465v4.025h-.348v-1.752l.027-1.798-1.536 3.55h-.27l-1.532-3.537.028 1.771v1.762h-.348v-4.026h.464v.005zM25.591 20.785h-1.87l-.428 1.132h-.367l1.56-4.025h.33l1.56 4.025h-.362l-.427-1.132h.004zm-1.764-.285h1.653l-.827-2.192-.826 2.192zM29.858 18.177h-1.416v3.736h-.348v-3.736h-1.411v-.285h3.175v.285zM34.018 21.913h-.352v-1.93h-2.359v1.93h-.348v-4.026h.348v1.807h2.359v-1.807h.352v4.026zM37.78 19.984h-1.932v1.639h2.219v.285h-2.568v-4.025h2.554v.285h-2.205v1.521h1.931v.295zM39.701 17.892l1.523 3.55 1.528-3.55h.464v4.025h-.348v-1.752l.028-1.798-1.537 3.55h-.27l-1.532-3.537.028 1.771v1.762h-.348v-4.026h.464v.005zM46.972 20.785h-1.87l-.428 1.132h-.367l1.56-4.025h.33l1.56 4.025h-.362l-.428-1.132h.005zm-1.764-.285h1.653l-.827-2.192-.826 2.192zM51.239 18.177h-1.416v3.736h-.348v-3.736h-1.412v-.285h3.176v.285zM52.766 21.913h-.348v-4.026h.348v4.026zM57.242 20.658c-.046.426-.204.747-.464.974-.265.226-.613.34-1.054.34-.306 0-.576-.077-.812-.222a1.446 1.446 0 0 1-.544-.634 2.147 2.147 0 0 1-.195-.938v-.52c0-.358.065-.675.195-.951.13-.277.311-.49.553-.639.241-.15.52-.226.83-.226.442 0 .79.117 1.046.349.255.23.404.552.445.964h-.353c-.088-.684-.469-1.023-1.142-1.023-.376 0-.673.135-.896.407-.223.272-.334.652-.334 1.132v.494c0 .466.107.833.325 1.114.218.276.51.416.877.416s.641-.086.827-.253c.186-.172.302-.426.343-.765h.353v-.019zM60.86 20.925a.644.644 0 0 0-.242-.53c-.163-.13-.455-.253-.883-.37-.427-.118-.738-.245-.933-.386-.278-.194-.418-.452-.418-.77 0-.316.13-.556.39-.751.26-.19.59-.29.999-.29.274 0 .52.05.733.154.218.104.386.245.502.43.116.186.176.39.176.616h-.353a.845.845 0 0 0-.288-.665c-.195-.168-.45-.25-.775-.25s-.566.068-.752.209a.638.638 0 0 0-.279.539c0 .203.084.37.251.502.167.131.436.245.808.34.371.095.65.2.84.308.19.104.334.23.432.38.098.15.144.322.144.52 0 .318-.13.571-.39.762-.26.19-.604.285-1.026.285-.293 0-.557-.05-.799-.154a1.22 1.22 0 0 1-.552-.426 1.087 1.087 0 0 1-.19-.63h.348c0 .286.106.508.325.671.218.163.506.244.868.244.32 0 .58-.067.775-.208a.64.64 0 0 0 .293-.548l-.005.018zM64.671 21.913h-.348v-4.026h.348v4.026zM69.295 21.913h-.348l-2.373-3.446v3.446h-.352v-4.026h.353l2.372 3.446v-3.446h.348v4.026zM75.313 18.177h-1.417v3.736h-.348v-3.736h-1.411v-.285h3.175v.285zM79.472 21.913h-.352v-1.93H76.76v1.93h-.348v-4.026h.348v1.807h2.359v-1.807h.352v4.026zM83.233 19.984h-1.931v1.639h2.22v.285h-2.568v-4.025h2.553v.285h-2.205v1.521h1.931v.295zM88.874 20.925a.644.644 0 0 0-.241-.53c-.162-.13-.455-.253-.882-.37-.427-.118-.738-.245-.933-.386-.279-.194-.418-.452-.418-.77 0-.316.13-.556.39-.751.26-.19.59-.29.998-.29.274 0 .52.05.734.154.218.104.385.245.501.43.116.186.177.39.177.616h-.353a.845.845 0 0 0-.288-.665c-.195-.168-.45-.25-.776-.25-.325 0-.566.068-.752.209a.638.638 0 0 0-.278.539c0 .203.083.37.25.502.168.131.437.245.808.34.372.095.65.2.84.308.191.104.335.23.432.38.098.15.144.322.144.52 0 .318-.13.571-.39.762-.26.19-.603.285-1.026.285-.292 0-.557-.05-.798-.154a1.22 1.22 0 0 1-.553-.426 1.087 1.087 0 0 1-.19-.63h.348c0 .286.107.508.325.671.218.163.506.244.868.244.32 0 .58-.067.776-.208a.64.64 0 0 0 .292-.548l-.005.018zM93.332 20.658c-.047.426-.205.747-.465.974-.264.226-.613.34-1.054.34-.306 0-.575-.077-.812-.222a1.446 1.446 0 0 1-.543-.634 2.147 2.147 0 0 1-.195-.938v-.52c0-.358.065-.675.195-.951.13-.277.31-.49.552-.639.242-.15.52-.226.831-.226.441 0 .79.117 1.045.349.255.23.404.552.446.964h-.353c-.088-.684-.47-1.023-1.142-1.023-.376 0-.674.135-.896.407-.223.272-.335.652-.335 1.132v.494c0 .466.107.833.325 1.114.219.276.511.416.878.416s.64-.086.826-.253c.186-.172.302-.426.344-.765h.353v-.019zM95.04 21.913h-.348v-4.026h.348v4.026zM98.87 19.984H96.94v1.639h2.22v.285H96.59v-4.025h2.553v.285H96.94v1.521h1.932v.295zM103.402 21.913h-.348l-2.373-3.446v3.446h-.353v-4.026h.353l2.373 3.446v-3.446h.348v4.026zM107.808 20.658c-.046.426-.204.747-.464.974-.265.226-.613.34-1.054.34-.306 0-.576-.077-.813-.222a1.455 1.455 0 0 1-.543-.634 2.147 2.147 0 0 1-.195-.938v-.52c0-.358.065-.675.195-.951.13-.277.311-.49.553-.639.241-.15.52-.226.831-.226.441 0 .789.117 1.044.349.256.23.404.552.446.964h-.353c-.088-.684-.469-1.023-1.142-1.023-.376 0-.673.135-.896.407-.223.272-.334.652-.334 1.132v.494c0 .466.107.833.325 1.114.218.276.511.416.877.416.367 0 .641-.086.827-.253.185-.172.302-.426.343-.765h.353v-.019zM111.369 19.984h-1.931v1.639h2.219v.285h-2.567v-4.025h2.553v.285h-2.205v1.521h1.931v.295zM115.163 20.925a.643.643 0 0 0-.242-.53c-.162-.13-.455-.253-.882-.37-.427-.118-.738-.245-.933-.386-.279-.194-.418-.452-.418-.77 0-.316.13-.556.39-.751.26-.19.59-.29.998-.29.274 0 .52.05.734.154.218.104.385.245.501.43.116.186.177.39.177.616h-.353a.846.846 0 0 0-.288-.665c-.195-.168-.451-.25-.776-.25s-.566.068-.752.209a.64.64 0 0 0-.278.539c0 .203.083.37.25.502.168.131.437.245.808.34.372.095.65.2.841.308.19.104.334.23.431.38.098.15.144.322.144.52 0 .318-.13.571-.39.762-.26.19-.603.285-1.026.285-.292 0-.557-.05-.798-.154a1.222 1.222 0 0 1-.553-.426 1.09 1.09 0 0 1-.19-.63h.348c0 .286.107.508.325.671.218.163.506.244.868.244.321 0 .581-.067.776-.208a.639.639 0 0 0 .292-.548l-.004.018z" fill="#12120D"/>
    <path d="M152.849.318v28.55" stroke="#12120D" stroke-width=".5" stroke-miterlimit="10" stroke-linecap="round"/>
    <defs>
        <linearGradient id="xen4ytwv1a" x1="123.413" y1="2.912" x2="141.098" y2="28.187" gradientUnits="userSpaceOnUse">
            <stop stop-color="#97133F"/>
            <stop offset=".38" stop-color="#8C4D74"/>
            <stop offset="1" stop-color="#336DA0"/>
        </linearGradient>
        <linearGradient id="vgmjnx320b" x1="120.516" y1="4.941" x2="138.201" y2="30.211" gradientUnits="userSpaceOnUse">
            <stop stop-color="#97133F"/>
            <stop offset=".38" stop-color="#8C4D74"/>
            <stop offset="1" stop-color="#336DA0"/>
        </linearGradient>
    </defs>
</svg>
